PathFileType	4	(X/Y/Z)	C:\Users\Graham\Documents\MATLAB\MOtoNMS_v2_2\MyData\ElaboratedData\S3\17-05-18\staticElaborations\Static1\Static1\\Static1.trc
DataRate	CameraRate	NumFrames	NumMarkers	Units	OrigDataRate	DataStartFrame
100	100	4	38	mm	100	2
Frame#	Time	V_Sacral			R_ASIS			L_ASIS			R_Knee_Lat			R_Knee_Med			R_Thigh_Upper			R_Thigh_Front			R_Thigh_Rear			L_Knee_Lat			L_Knee_Med			L_Thigh_Upper			L_Thigh_Front			L_Thigh_Rear			R_Ankle_Lat			R_Ankle_Med			R_Shank_Upper			R_Shank_Front			R_Shank_Rear			L_Ankle_Lat			L_Ankle_Med			L_Shank_Upper			L_Shank_Front			L_Shank_Rear			R_Heel			R_MTP1			R_MTP5			L_Heel			L_MTP1			L_MTP5			Clavicle			R_Acromium			L_Acromium			LAJC			RAJC			LHJC			RHJC			LKJC			RKJC		
		X1	Y1	Z1	X2	Y2	Z2	X3	Y3	Z3	X4	Y4	Z4	X5	Y5	Z5	X6	Y6	Z6	X7	Y7	Z7	X8	Y8	Z8	X9	Y9	Z9	X10	Y10	Z10	X11	Y11	Z11	X12	Y12	Z12	X13	Y13	Z13	X14	Y14	Z14	X15	Y15	Z15	X16	Y16	Z16	X17	Y17	Z17	X18	Y18	Z18	X19	Y19	Z19	X20	Y20	Z20	X21	Y21	Z21	X22	Y22	Z22	X23	Y23	Z23	X24	Y24	Z24	X25	Y25	Z25	X26	Y26	Z26	X27	Y27	Z27	X28	Y28	Z28	X29	Y29	Z29	X30	Y30	Z30	X31	Y31	Z31	X32	Y32	Z32	X33	Y33	Z33	X34	Y34	Z34	X35	Y35	Z35	X36	Y36	Z36	X37	Y37	Z37	X38	Y38	Z38	

52	0.510000	-51.303957	1039.302387	54.657901	143.558796	1005.063879	183.745511	144.761935	1003.123046	-62.882681	50.366207	522.869034	178.299495	29.379725	516.854481	63.121434	145.042447	741.317031	181.544474	136.312736	650.506962	141.264704	105.119870	650.692009	184.666306	58.016005	524.117137	-109.452999	54.800114	512.993264	9.969475	151.461989	777.092232	-88.347930	152.680928	675.352118	-53.486991	118.171370	676.571366	-103.259233	-8.561957	99.915601	146.695071	1.158054	112.022936	65.543260	60.340207	319.818693	135.447858	44.883908	227.000643	99.712842	34.962317	223.010048	157.407433	-6.097876	108.848319	-131.313356	4.978114	105.044563	-51.038655	64.512596	301.960180	-82.256275	47.564740	208.699548	-55.521174	53.458672	213.371905	-114.681924	-70.541008	49.500290	106.056714	138.428790	55.774067	81.420410	107.474923	51.060840	159.656909	-70.420524	51.444969	-104.877938	135.494960	53.425495	-76.444249	111.189823	49.938652	-153.458784	77.268804	1402.689471	70.003095	-5.861698	1422.168116	232.221096	15.883206	1439.077326	-107.483569	-0.559881	106.946441	-91.176006	-3.701951	105.969269	106.119166	72.855608	930.070965	-28.028510	71.990315	931.466804	149.345471	56.408059	518.555201	-49.741762	39.872966	519.861757	120.710465	
53	0.520000	-51.282709	1039.315226	54.664501	143.591768	1005.060319	183.744303	144.784290	1003.130152	-62.886340	50.431094	522.871187	178.265344	29.440666	516.859811	63.095067	145.094651	741.323405	181.533761	136.369148	650.513758	141.250292	105.165325	650.687013	184.653930	58.033843	524.121065	-109.451268	54.824541	512.998396	9.972085	151.477985	777.095096	-88.354985	152.699277	675.357303	-53.491036	118.188173	676.575632	-103.260011	-8.555245	99.919283	146.686542	1.164732	112.018117	65.532754	60.375242	319.809771	135.424065	44.903941	226.991183	99.696697	34.984696	223.009633	157.393583	-6.095212	108.852949	-131.312138	4.980428	105.047312	-51.038053	64.526418	301.964066	-82.255394	47.583353	208.707057	-55.517778	53.469047	213.378917	-114.679735	-70.540321	49.508575	106.055548	138.433243	55.765913	81.417869	107.476919	51.058207	159.654035	-70.419016	51.449374	-104.876243	135.495103	53.426272	-76.444899	111.190712	49.938797	-153.458067	77.333314	1402.692522	70.015344	-5.783197	1422.179633	232.243009	15.927513	1439.087764	-107.467313	-0.557392	106.950130	-91.175095	-3.695257	105.968700	106.109648	72.873922	930.079673	-28.031893	72.016265	931.467840	149.343714	56.429192	518.559730	-49.739592	39.935880	519.865499	120.680206	
54	0.530000	-51.260075	1039.327203	54.671305	143.627189	1005.056163	183.741230	144.806548	1003.137773	-62.892483	50.495539	522.872254	178.234433	29.500273	516.863420	63.070585	145.147842	741.329008	181.522453	136.424625	650.519325	141.235343	105.210768	650.681840	184.641373	58.051849	524.124696	-109.450435	54.850201	513.003495	9.973180	151.493127	777.098249	-88.365176	152.718518	675.362101	-53.498615	118.204186	676.579765	-103.263008	-8.548493	99.923243	146.678110	1.171868	112.013261	65.522742	60.409496	319.800063	135.401546	44.924113	226.982287	99.681390	35.007506	223.008576	157.380832	-6.092281	108.857242	-131.310972	4.983001	105.049679	-51.037584	64.540492	301.967868	-82.256672	47.603939	208.716154	-55.515400	53.478185	213.383678	-114.678093	-70.540326	49.516461	106.055200	138.437281	55.757831	81.414877	107.478733	51.055742	159.650893	-70.417377	51.453844	-104.874510	135.494388	53.426383	-76.445271	111.191451	49.938645	-153.457437	77.394569	1402.694159	70.030182	-5.710846	1422.189431	232.265956	15.972554	1439.097659	-107.450250	-0.554640	106.953461	-91.174278	-3.688312	105.968252	106.100426	72.892855	930.088259	-28.037239	72.044666	931.467955	149.340404	56.451025	518.564096	-49.738628	39.997906	519.867837	120.652509	
55	0.540000	-51.236156	1039.337508	54.678380	143.664999	1005.051027	183.736358	144.828633	1003.145398	-62.901080	50.558840	522.871650	178.207701	29.557437	516.865600	63.048205	145.201799	741.333554	181.510546	136.478493	650.523293	141.219921	105.256594	650.676547	184.628777	58.069822	524.127924	-109.450733	54.877058	513.008367	9.972454	151.507765	777.101867	-88.378675	152.738780	675.366357	-53.510396	118.219582	676.583742	-103.268731	-8.541709	99.927362	146.670019	1.179026	112.008427	65.513470	60.442497	319.789984	135.380814	44.944116	226.974184	99.667194	35.030208	223.006918	157.369291	-6.089105	108.861147	-131.309892	4.985954	105.051838	-51.037381	64.554669	301.971420	-82.260247	47.625293	208.726020	-55.514182	53.484726	213.385134	-114.677363	-70.541162	49.523633	106.055844	138.440829	55.749642	81.411623	107.480377	51.053547	159.647804	-70.415682	51.458375	-104.872795	135.493099	53.425965	-76.445286	111.192108	49.938190	-153.456915	77.452662	1402.694043	70.047602	-5.644599	1422.196621	232.290021	16.018310	1439.107200	-107.432159	-0.551576	106.956493	-91.173637	-3.681342	105.967895	106.091744	72.912474	930.096089	-28.044467	72.075596	931.466606	149.335644	56.473440	518.568146	-49.739139	40.058139	519.868625	120.627953	
